<svg width="19" height="19" fill="none" xmlns="http://www.w3.org/2000/svg"><path d="M13.4.687H5.213A4.839 4.839 0 00.38 5.52v8.189a4.839 4.839 0 004.833 4.833h8.19a4.839 4.839 0 004.832-4.833v-8.19A4.839 4.839 0 0013.401.688zm-4.093 13.81a4.888 4.888 0 01-4.883-4.883 4.888 4.888 0 014.883-4.882 4.888 4.888 0 014.882 4.882 4.888 4.888 0 01-4.882 4.882zm4.998-8.614a1.444 1.444 0 01-1.442-1.442c0-.796.647-1.443 1.442-1.443.796 0 1.443.647 1.443 1.443 0 .795-.647 1.442-1.443 1.442z" fill="#fff"/><path d="M9.307 5.779A3.84 3.84 0 005.47 9.614a3.84 3.84 0 003.836 3.836 3.84 3.84 0 003.835-3.836A3.84 3.84 0 009.307 5.78zm4.999-1.734a.396.396 0 100 .793.396.396 0 000-.793z" fill="#fff"/></svg>